<svg width="108" height="21" xmlns="http://www.w3.org/2000/svg" xmlns:sketch="http://www.bohemiancoding.com/sketch/ns"><title>Artboard 1</title><g sketch:type="MSShapeGroup" transform="translate(0 1)" fill="none"><g transform="translate(0 2)"><path d="M6.405 10.591c-1.844 0-3.34-1.496-3.34-3.342 0-1.845 1.496-3.341 3.34-3.341 1.847 0 3.343 1.496 3.343 3.341 0 1.846-1.496 3.342-3.343 3.342m-.096-9.626c-3.495 0-6.327 2.833-6.327 6.327l.001.073h-.001v10.215l4.045-4.384c.708.274 1.478.424 2.282.424 3.495 0 6.328-2.833 6.328-6.328 0-3.494-2.833-6.327-6.328-6.327" fill="#0B99D9"/><path d="M24.038 11.018c-.25 0-.561-.046-.924-.135-.361-.088-.727-.23-1.092-.422-.248-.139-1.122-.716-1.122-1.78v-1.099c0-.922.304-1.718.93-2.432.592-.689 1.319-1.022 2.225-1.022.78 0 1.475.332 2.127 1.015.618.67.932 1.436.955 2.334l-.017.105c0 .979-.308 1.784-.94 2.459-.626.657-1.327.977-2.142.977m-.018-8.225c-1.264 0-2.342.462-3.202 1.371-.854.892-1.289 2.035-1.289 3.397v7.35c0 .189.153.342.341.342h.689c.189 0 .341-.153.341-.342v-3.615c.169.164.375.314.613.45.425.259.887.429 1.368.503.458.069.837.103 1.157.103 1.264 0 2.34-.462 3.2-1.375.867-.906 1.307-2.051 1.307-3.404 0-1.339-.439-2.489-1.305-3.42-.864-.903-1.945-1.36-3.22-1.36" fill="#0B99D9"/><path d="M31.116.138c-.183-.146-.382-.22-.593-.22-.327 0-.521.142-.63.271-.167.159-.256.365-.256.596 0 .246.092.468.264.64.158.16.374.245.622.245s.469-.092.64-.264c.159-.159.244-.374.244-.621 0-.254-.096-.474-.277-.634l-.014-.013" fill="#0B99D9"/><path d="M30.903 2.957h-.724c-.189 0-.341.153-.341.341v8.532c0 .189.152.341.341.341h.724c.188 0 .342-.152.342-.341v-8.532c0-.188-.154-.341-.342-.341" fill="#0B99D9"/><path d="M38.512 2.793h-1.268c-1.368 0-2.504.442-3.376 1.315-.882.856-1.331 1.993-1.331 3.375 0 1.357.455 2.493 1.352 3.376.869.87 1.998 1.312 3.355 1.312h1.268c.188 0 .341-.152.341-.341v-.724c0-.189-.153-.341-.341-.341h-1.231c-1.027 0-1.818-.294-2.422-.897-.616-.616-.914-1.396-.914-2.385 0-.988.304-1.768.929-2.384.64-.616 1.427-.916 2.407-.916h1.231c.188 0 .341-.154.341-.342v-.707c0-.188-.153-.341-.341-.341" fill="#0B99D9"/><path d="M46.755 2.957h-.88c-.114 0-.22.057-.283.151l-1.005 1.504c-.245.387-.464.704-.656.949-.177.229-.331.41-.443.522-.297.297-.598.442-.917.442h-1.072v-6.266c0-.188-.153-.341-.342-.341h-.669c-.189 0-.342.153-.342.341v11.571c0 .189.153.341.342.341h.688c.189 0 .341-.152.341-.341v-3.97h2.069c.563 0 .999.163 1.333.497.321.341.48.751.48 1.245v2.228c0 .189.154.341.342.341h.725c.188 0 .341-.152.341-.341v-2.265c0-.927-.305-1.682-.905-2.242-.304-.302-.657-.516-1.055-.64.105-.115.207-.242.304-.383l.01-.015.292-.449.315-.46 1.271-1.888c.07-.104.077-.239.018-.35-.06-.111-.176-.181-.302-.181" fill="#0B99D9"/><path d="M55.373 5.021l-5.413 3.748-.111-.355c-.069-.25-.104-.509-.104-.768 0-.947.32-1.762.98-2.488.637-.692 1.426-1.03 2.409-1.03.914 0 1.65.293 2.239.893m2.236 2.392h-.761c-.188 0-.341.152-.341.341 0 .914-.322 1.669-.983 2.309-.654.643-1.441.955-2.408.955-.974 0-1.758-.327-2.396-.999l-.09-.093 6.483-4.426c.151-.103.193-.307.097-.462-.428-.688-1.006-1.238-1.716-1.639-.687-.401-1.488-.606-2.378-.606-1.382 0-2.537.474-3.434 1.41-.88.921-1.327 2.06-1.327 3.388 0 1.358.474 2.507 1.407 3.415.933.894 2.116 1.346 3.517 1.346 1.283 0 2.396-.46 3.304-1.367.908-.936 1.367-2.022 1.367-3.231 0-.189-.153-.341-.341-.341" fill="#27AE60"/><path d="M67.183 3.106c-.064-.094-.169-.149-.282-.149h-.797c-.141 0-.266.085-.318.215l-2.962 7.465-2.943-7.464c-.052-.131-.177-.216-.317-.216h-.797c-.113 0-.219.055-.283.149-.063.094-.077.212-.035.317l3.261 8.261c.122.305.414.668 1.115.668.715 0 1.01-.363 1.132-.667l3.261-8.262c.041-.105.028-.223-.035-.317" fill="#27AE60"/><path d="M74.734 5.021l-5.412 3.748-.112-.355c-.069-.25-.104-.509-.104-.768 0-.947.321-1.762.98-2.488.638-.692 1.426-1.03 2.41-1.03.914 0 1.65.293 2.238.893m2.236 2.392h-.76c-.189 0-.341.152-.341.341 0 .914-.322 1.669-.983 2.309-.655.643-1.442.955-2.408.955-.975 0-1.759-.327-2.396-.999l-.09-.093 6.483-4.426c.151-.103.194-.307.097-.462-.428-.688-1.006-1.238-1.717-1.639-.686-.401-1.487-.606-2.377-.606-1.382 0-2.538.474-3.435 1.41-.88.921-1.326 2.06-1.326 3.388 0 1.358.473 2.507 1.407 3.415.933.894 2.115 1.346 3.516 1.346 1.284 0 2.396-.46 3.304-1.367.909-.936 1.368-2.022 1.368-3.231 0-.189-.153-.341-.342-.341" fill="#27AE60"/><path d="M82.351 2.793c-1.056 0-1.954.363-2.669 1.079-.715.702-1.078 1.631-1.078 2.759v5.199c0 .189.153.341.341.341h.689c.188 0 .341-.152.341-.341v-5.097c0-.785.224-1.406.686-1.899.455-.474 1.015-.706 1.709-.706.68 0 1.232.237 1.688.724.476.495.704 1.11.704 1.881v5.097c0 .189.154.341.343.341h.725c.187 0 .34-.152.34-.341v-5.199c0-1.117-.383-2.053-1.137-2.781-.727-.701-1.63-1.057-2.682-1.057" fill="#27AE60"/><path d="M91.5 4.292c.189 0 .342-.153.342-.342v-.652c0-.188-.153-.341-.342-.341h-2.682v-1.708c0-.188-.153-.342-.341-.342h-.671c-.189 0-.342.154-.342.342v1.708h-.528c-.188 0-.341.153-.341.341v.652c0 .189.153.342.341.342h.528v5.097c0 .834.245 1.515.727 2.024.476.503 1.181.758 2.096.758h1.213c.189 0 .342-.153.342-.341v-.652c0-.189-.153-.341-.342-.341h-1.358c-.417 0-.741-.122-.989-.371-.224-.233-.335-.565-.335-1.009v-5.165h2.682" fill="#27AE60"/></g><path d="M95.365 4v-3.615h1.248c.237 0 .439.022.606.068.168.045.305.109.413.193.108.083.186.184.236.303.05.118.075.252.075.4l-.038.244-.116.218c-.053.068-.119.129-.2.184-.081.055-.177.102-.289.14.497.112.745.38.745.805 0 .153-.029.295-.088.425-.058.13-.143.242-.255.336-.112.094-.249.168-.413.221-.163.053-.35.08-.56.08h-1.365zm.673-1.585v1.06h.683c.125 0 .23-.015.314-.045.084-.03.152-.07.203-.12l.11-.175.034-.213-.038-.211-.118-.16-.205-.101c-.083-.023-.184-.035-.303-.035h-.68zm0-.465h.538c.228 0 .402-.042.52-.125.118-.083.178-.216.178-.398 0-.188-.053-.323-.16-.403-.107-.08-.273-.12-.5-.12h-.575v1.045zm4.865-1.565v.535h-1.603v1.003h1.263v.518h-1.263v1.023h1.603v.538h-2.28v-3.615h2.28zm3.13 0v.553h-1.088v3.063h-.673v-3.063h-1.093v-.553h2.853zm3.238 3.615h-.52l-.144-.044-.081-.109-.27-.738h-1.498l-.27.738-.079.105-.144.048h-.523l1.42-3.615h.688l1.42 3.615zm-2.34-1.365h1.153l-.44-1.203-.066-.189-.071-.236-.069.238-.066.193-.44 1.198z" fill="#0B99D9"/></g></svg>