<?xml version="1.0" encoding="UTF-8" standalone="no"?>
<svg width="108px" height="21px" viewBox="0 0 108 21" version="1.1" xmlns="http://www.w3.org/2000/svg" xmlns:xlink="http://www.w3.org/1999/xlink" xmlns:sketch="http://www.bohemiancoding.com/sketch/ns">
    <title>Artboard 1</title>
    <description>Created with Sketch (http://www.bohemiancoding.com/sketch)</description>
    <defs></defs>
    <g id="Page-1" stroke="none" stroke-width="1" fill="none" fill-rule="evenodd" sketch:type="MSPage">
        <g id="Artboard-1" sketch:type="MSArtboardGroup">
            <g id="beta_color" sketch:type="MSLayerGroup" transform="translate(0.000000, 1.000000)">
                <g id="Page-1" sketch:type="MSShapeGroup">
                    <g id="pickevent_color-+-BETA">
                        <g id="pickevent_color" transform="translate(0.000000, 2.000000)">
                            <g id="Profile">
                                <g id="v10---Speaker-Public-Profile---Overall">
                                    <g id="main-structure">
                                        <g id="pickevent_footer">
                                            <g id="Group">
                                                <path d="M6.405,10.591 C4.561,10.591 3.065,9.095 3.065,7.249 C3.065,5.404 4.561,3.908 6.405,3.908 C8.252,3.908 9.748,5.404 9.748,7.249 C9.748,9.095 8.252,10.591 6.405,10.591 M6.309,0.965 C2.814,0.965 -0.018,3.798 -0.018,7.292 C-0.018,7.317 -0.018,7.342 -0.017,7.365 L-0.018,7.365 L-0.018,17.58 L4.027,13.196 C4.735,13.47 5.505,13.62 6.309,13.62 C9.804,13.62 12.637,10.787 12.637,7.292 C12.637,3.798 9.804,0.965 6.309,0.965" id="Fill-1" fill="#0B99D9"></path>
                                                <path d="M24.038,11.018 C23.788,11.018 23.477,10.972 23.114,10.883 C22.753,10.795 22.387,10.653 22.022,10.461 C21.774,10.322 20.9,9.745 20.9,8.681 L20.9,7.582 C20.9,6.66 21.204,5.864 21.83,5.15 C22.422,4.461 23.149,4.128 24.055,4.128 C24.835,4.128 25.53,4.46 26.182,5.143 C26.8,5.813 27.114,6.579 27.137,7.477 C27.126,7.511 27.12,7.546 27.12,7.582 C27.12,8.561 26.812,9.366 26.18,10.041 C25.554,10.698 24.853,11.018 24.038,11.018 M24.02,2.793 C22.756,2.793 21.678,3.255 20.818,4.164 C19.964,5.056 19.529,6.199 19.529,7.561 L19.529,14.911 C19.529,15.1 19.682,15.253 19.87,15.253 L20.559,15.253 C20.748,15.253 20.9,15.1 20.9,14.911 L20.9,11.296 C21.069,11.46 21.275,11.61 21.513,11.746 C21.938,12.005 22.4,12.175 22.881,12.249 C23.339,12.318 23.718,12.352 24.038,12.352 C25.302,12.352 26.378,11.89 27.238,10.977 C28.105,10.071 28.545,8.926 28.545,7.573 C28.545,6.234 28.106,5.084 27.24,4.153 C26.376,3.25 25.295,2.793 24.02,2.793" id="Fill-2" fill="#0B99D9"></path>
                                                <path d="M31.116,0.138 C30.933,-0.008 30.734,-0.082 30.523,-0.082 C30.196,-0.082 30.002,0.06 29.893,0.189 C29.726,0.348 29.637,0.554 29.637,0.785 C29.637,1.031 29.729,1.253 29.901,1.425 C30.059,1.585 30.275,1.67 30.523,1.67 C30.771,1.67 30.992,1.578 31.163,1.406 C31.322,1.247 31.407,1.032 31.407,0.785 C31.407,0.531 31.311,0.311 31.13,0.151 C31.125,0.146 31.121,0.142 31.116,0.138" id="Fill-3" fill="#0B99D9"></path>
                                                <path d="M30.903,2.957 L30.179,2.957 C29.99,2.957 29.838,3.11 29.838,3.298 L29.838,11.83 C29.838,12.019 29.99,12.171 30.179,12.171 L30.903,12.171 C31.091,12.171 31.245,12.019 31.245,11.83 L31.245,3.298 C31.245,3.11 31.091,2.957 30.903,2.957" id="Fill-4" fill="#0B99D9"></path>
                                                <path d="M38.512,2.793 L37.244,2.793 C35.876,2.793 34.74,3.235 33.868,4.108 C32.986,4.964 32.537,6.101 32.537,7.483 C32.537,8.84 32.992,9.976 33.889,10.859 C34.758,11.729 35.887,12.171 37.244,12.171 L38.512,12.171 C38.7,12.171 38.853,12.019 38.853,11.83 L38.853,11.106 C38.853,10.917 38.7,10.765 38.512,10.765 L37.281,10.765 C36.254,10.765 35.463,10.471 34.859,9.868 C34.243,9.252 33.945,8.472 33.945,7.483 C33.945,6.495 34.249,5.715 34.874,5.099 C35.514,4.483 36.301,4.183 37.281,4.183 L38.512,4.183 C38.7,4.183 38.853,4.029 38.853,3.841 L38.853,3.134 C38.853,2.946 38.7,2.793 38.512,2.793" id="Fill-5" fill="#0B99D9"></path>
                                                <path d="M46.755,2.957 L45.875,2.957 C45.761,2.957 45.655,3.014 45.592,3.108 L44.587,4.612 C44.342,4.999 44.123,5.316 43.931,5.561 C43.754,5.79 43.6,5.971 43.488,6.083 C43.191,6.38 42.89,6.525 42.571,6.525 L41.499,6.525 L41.499,0.259 C41.499,0.071 41.346,-0.082 41.157,-0.082 L40.488,-0.082 C40.299,-0.082 40.146,0.071 40.146,0.259 L40.146,11.83 C40.146,12.019 40.299,12.171 40.488,12.171 L41.176,12.171 C41.365,12.171 41.517,12.019 41.517,11.83 L41.517,7.86 L43.586,7.86 C44.149,7.86 44.585,8.023 44.919,8.357 C45.24,8.698 45.399,9.108 45.399,9.602 L45.399,11.83 C45.399,12.019 45.553,12.171 45.741,12.171 L46.466,12.171 C46.654,12.171 46.807,12.019 46.807,11.83 L46.807,9.565 C46.807,8.638 46.502,7.883 45.902,7.323 C45.598,7.021 45.245,6.807 44.847,6.683 C44.952,6.568 45.054,6.441 45.151,6.3 C45.154,6.295 45.158,6.29 45.161,6.285 C45.251,6.14 45.349,5.989 45.453,5.836 C45.555,5.684 45.661,5.532 45.768,5.376 L47.039,3.488 C47.109,3.384 47.116,3.249 47.057,3.138 C46.997,3.027 46.881,2.957 46.755,2.957" id="Fill-6" fill="#0B99D9"></path>
                                                <path d="M55.373,5.021 L49.96,8.769 C49.92,8.655 49.883,8.536 49.849,8.414 C49.78,8.164 49.745,7.905 49.745,7.646 C49.745,6.699 50.065,5.884 50.725,5.158 C51.362,4.466 52.151,4.128 53.134,4.128 C54.048,4.128 54.784,4.421 55.373,5.021 M57.609,7.413 L56.848,7.413 C56.66,7.413 56.507,7.565 56.507,7.754 C56.507,8.668 56.185,9.423 55.524,10.063 C54.87,10.706 54.083,11.018 53.116,11.018 C52.142,11.018 51.358,10.691 50.72,10.019 C50.689,9.988 50.659,9.957 50.63,9.926 L57.113,5.5 C57.264,5.397 57.306,5.193 57.21,5.038 C56.782,4.35 56.204,3.8 55.494,3.399 C54.807,2.998 54.006,2.793 53.116,2.793 C51.734,2.793 50.579,3.267 49.682,4.203 C48.802,5.124 48.355,6.263 48.355,7.591 C48.355,8.949 48.829,10.098 49.762,11.006 C50.695,11.9 51.878,12.352 53.279,12.352 C54.562,12.352 55.675,11.892 56.583,10.985 C57.491,10.049 57.95,8.963 57.95,7.754 C57.95,7.565 57.797,7.413 57.609,7.413" id="Fill-7" fill="#27AE60"></path>
                                                <path d="M67.183,3.106 C67.119,3.012 67.014,2.957 66.901,2.957 L66.104,2.957 C65.963,2.957 65.838,3.042 65.786,3.172 L62.824,10.637 L59.881,3.173 C59.829,3.042 59.704,2.957 59.564,2.957 L58.767,2.957 C58.654,2.957 58.548,3.012 58.484,3.106 C58.421,3.2 58.407,3.318 58.449,3.423 L61.71,11.684 C61.832,11.989 62.124,12.352 62.825,12.352 C63.54,12.352 63.835,11.989 63.957,11.685 L67.218,3.423 C67.259,3.318 67.246,3.2 67.183,3.106" id="Fill-8" fill="#27AE60"></path>
                                                <path d="M74.734,5.021 L69.322,8.769 C69.282,8.655 69.244,8.536 69.21,8.414 C69.141,8.164 69.106,7.905 69.106,7.646 C69.106,6.699 69.427,5.884 70.086,5.158 C70.724,4.466 71.512,4.128 72.496,4.128 C73.41,4.128 74.146,4.421 74.734,5.021 M76.97,7.413 L76.21,7.413 C76.021,7.413 75.869,7.565 75.869,7.754 C75.869,8.668 75.547,9.423 74.886,10.063 C74.231,10.706 73.444,11.018 72.478,11.018 C71.503,11.018 70.719,10.691 70.082,10.019 C70.051,9.988 70.021,9.957 69.992,9.926 L76.475,5.5 C76.626,5.397 76.669,5.193 76.572,5.038 C76.144,4.35 75.566,3.8 74.855,3.399 C74.169,2.998 73.368,2.793 72.478,2.793 C71.096,2.793 69.94,3.267 69.043,4.203 C68.163,5.124 67.717,6.263 67.717,7.591 C67.717,8.949 68.19,10.098 69.124,11.006 C70.057,11.9 71.239,12.352 72.64,12.352 C73.924,12.352 75.036,11.892 75.944,10.985 C76.853,10.049 77.312,8.963 77.312,7.754 C77.312,7.565 77.159,7.413 76.97,7.413" id="Fill-9" fill="#27AE60"></path>
                                                <path d="M82.351,2.793 C81.295,2.793 80.397,3.156 79.682,3.872 C78.967,4.574 78.604,5.503 78.604,6.631 L78.604,11.83 C78.604,12.019 78.757,12.171 78.945,12.171 L79.634,12.171 C79.822,12.171 79.975,12.019 79.975,11.83 L79.975,6.733 C79.975,5.948 80.199,5.327 80.661,4.834 C81.116,4.36 81.676,4.128 82.37,4.128 C83.05,4.128 83.602,4.365 84.058,4.852 C84.534,5.347 84.762,5.962 84.762,6.733 L84.762,11.83 C84.762,12.019 84.916,12.171 85.105,12.171 L85.83,12.171 C86.017,12.171 86.17,12.019 86.17,11.83 L86.17,6.631 C86.17,5.514 85.787,4.578 85.033,3.85 C84.306,3.149 83.403,2.793 82.351,2.793" id="Fill-10" fill="#27AE60"></path>
                                                <path d="M91.5,4.292 C91.689,4.292 91.842,4.139 91.842,3.95 L91.842,3.298 C91.842,3.11 91.689,2.957 91.5,2.957 L88.818,2.957 L88.818,1.249 C88.818,1.061 88.665,0.907 88.477,0.907 L87.806,0.907 C87.617,0.907 87.464,1.061 87.464,1.249 L87.464,2.957 L86.936,2.957 C86.748,2.957 86.595,3.11 86.595,3.298 L86.595,3.95 C86.595,4.139 86.748,4.292 86.936,4.292 L87.464,4.292 L87.464,9.389 C87.464,10.223 87.709,10.904 88.191,11.413 C88.667,11.916 89.372,12.171 90.287,12.171 L91.5,12.171 C91.689,12.171 91.842,12.018 91.842,11.83 L91.842,11.178 C91.842,10.989 91.689,10.837 91.5,10.837 L90.142,10.837 C89.725,10.837 89.401,10.715 89.153,10.466 C88.929,10.233 88.818,9.901 88.818,9.457 L88.818,4.292 L91.5,4.292" id="Fill-11" fill="#27AE60"></path>
                                            </g>
                                        </g>
                                    </g>
                                </g>
                            </g>
                        </g>
                        <g id="BETA" transform="translate(95.000000, 0.000000)" fill="#0B99D9">
                            <path d="M0.365000928,4 L0.365000928,0.384990807 L1.6125041,0.384990807 C1.84917255,0.384990807 2.05125438,0.407490639 2.21875564,0.452490978 C2.38625691,0.497491318 2.52375588,0.561657506 2.63125669,0.644991468 C2.7387575,0.72832543 2.81750692,0.829158011 2.86750729,0.947492237 C2.91750767,1.06582646 2.94250748,1.1991588 2.94250748,1.34749325 C2.94250748,1.4324939 2.93000758,1.51374329 2.90500739,1.59124387 C2.8800072,1.66874446 2.84125749,1.74124392 2.78875709,1.80874443 C2.7362567,1.87624494 2.66959053,1.93749448 2.58875658,1.99249489 C2.50792264,2.04749531 2.41167336,2.09416163 2.30000585,2.13249525 C2.79667626,2.24416276 3.04500774,2.51249409 3.04500774,2.9374973 C3.04500774,3.09083179 3.01584129,3.2324974 2.95750752,3.36249838 C2.89917375,3.49249936 2.81417438,3.60458186 2.70250687,3.69874923 C2.59083936,3.79291661 2.45334039,3.86666606 2.29000582,3.9199998 C2.12667126,3.97333353 1.94000598,4 1.7300044,4 L0.365000928,4 Z M1.03750264,2.41499597 L1.03750264,3.47499866 L1.72000437,3.47499866 C1.84500532,3.47499866 1.94958787,3.45999878 2.03375517,3.42999855 C2.11792247,3.39999832 2.18542197,3.35999862 2.23625569,3.30999825 C2.2870894,3.25999787 2.3237558,3.20166497 2.34625597,3.1349978 C2.36875614,3.06833063 2.38000605,2.99749783 2.38000605,2.92249726 C2.38000605,2.84416334 2.36750615,2.77374719 2.34250596,2.71124672 C2.31750577,2.64874625 2.27833939,2.59541332 2.22500566,2.55124632 C2.17167192,2.50707932 2.1033391,2.47332957 2.02000514,2.44999606 C1.93667118,2.42666255 1.83583859,2.41499597 1.71750437,2.41499597 L1.03750264,2.41499597 Z M1.03750264,1.94999479 L1.57500401,1.94999479 C1.80333906,1.94999479 1.9766711,1.90832843 2.09500533,1.82499447 C2.21333955,1.74166051 2.27250578,1.60916149 2.27250578,1.42749346 C2.27250578,1.2391587 2.21917284,1.10499304 2.11250537,1.02499243 C2.0058379,0.944991831 1.83917248,0.904992129 1.6125041,0.904992129 L1.03750264,0.904992129 L1.03750264,1.94999479 Z M5.90251501,0.384990807 L5.90251501,0.919992167 L4.30001094,0.919992167 L4.30001094,1.92249472 L5.56251415,1.92249472 L5.56251415,2.43999603 L4.30001094,2.43999603 L4.30001094,3.46249863 L5.90251501,3.46249863 L5.90251501,4 L3.62250921,4 L3.62250921,0.384990807 L5.90251501,0.384990807 Z M9.03252297,0.384990807 L9.03252297,0.937492212 L7.94502021,0.937492212 L7.94502021,4 L7.27251849,4 L7.27251849,0.937492212 L6.18001572,0.937492212 L6.18001572,0.384990807 L9.03252297,0.384990807 Z M12.2700312,4 L11.7500299,4 C11.6916961,4 11.6437798,3.98541678 11.6062795,3.95624989 C11.5687792,3.927083 11.5416961,3.89083327 11.5250293,3.84749961 L11.2550286,3.10999774 L9.75752481,3.10999774 L9.48752413,3.84749961 C9.47419069,3.88583323 9.44794089,3.92083297 9.40877393,3.95249988 C9.36960697,3.98416678 9.32169066,4 9.26502356,4 L8.74252223,4 L10.1625258,0.384990807 L10.8500276,0.384990807 L12.2700312,4 Z M9.93002525,2.63499653 L11.0825282,2.63499653 L10.6425271,1.43249347 C10.6225269,1.37915973 10.6004437,1.31624354 10.5762769,1.24374299 C10.55211,1.17124244 10.5283602,1.09249303 10.5050267,1.00749239 C10.4816932,1.09249303 10.4587767,1.17165911 10.4362765,1.24499299 C10.4137764,1.31832688 10.3916932,1.38249307 10.3700264,1.43749348 L9.93002525,2.63499653 Z"></path>
                        </g>
                    </g>
                </g>
            </g>
        </g>
    </g>
</svg>